<?xml version="1.0" encoding="utf-8"?>
<!-- Generator: Adobe Illustrator 23.1.1, SVG Export Plug-In . SVG Version: 6.00 Build 0)  -->
<svg version="1.1" id="Capa_1" xmlns="http://www.w3.org/2000/svg" xmlns:xlink="http://www.w3.org/1999/xlink" x="0px" y="0px"
	 viewBox="0 0 157 55" style="enable-background:new 0 0 157 55;" xml:space="preserve">
<style type="text/css">
	.st0{clip-path:url(#SVGID_2_);}
	.st1{fill:url(#SVGID_3_);}
</style>
<title>libergy-solar</title>
<g>
	<defs>
		<path id="SVGID_1_" d="M145,36.5c0,2.3,1.9,4.2,4.2,4.2s4.2-1.9,4.2-4.2c0-2.3-1.9-4.2-4.2-4.2c0,0,0,0,0,0
			C146.9,32.3,145,34.2,145,36.5C145,36.5,145,36.5,145,36.5 M18.5,40.7h6.7V17.1h-6.7V40.7z M138.1,17.1c-0.3,1.2-0.6,2.4-1,3.8
			s-0.8,2.7-1.2,4.1s-0.8,2.7-1.2,4.1s-0.8,2.5-1.2,3.6c-0.4-1.1-0.9-2.3-1.3-3.6s-0.9-2.7-1.4-4.1s-0.9-2.8-1.3-4.1
			s-0.8-2.6-1.1-3.8h-7.1c1.2,4.3,2.6,8.4,4.3,12.5c1.5,3.7,3,7.1,4.6,10.1c-0.4,1-0.9,1.9-1.6,2.7c-0.7,0.7-1.7,1.1-2.7,1
			c-0.6,0-1.1,0-1.7-0.1c-0.6-0.1-1.2-0.3-1.8-0.5l-1.2,5.3c0.7,0.3,1.4,0.5,2.2,0.7c0.9,0.2,1.9,0.3,2.9,0.3c1.1,0,2.2-0.1,3.3-0.4
			c0.9-0.3,1.8-0.7,2.5-1.3c0.8-0.7,1.5-1.5,2.1-2.3c0.7-1.1,1.3-2.2,1.9-3.4c1.7-3.7,3.3-7.6,4.8-11.6c1.5-4,2.9-8.2,4.2-12.8
			L138.1,17.1z M85.3,17.2c-1.4,0.3-2.8,0.7-4.2,1.2v22.3h6.7v-18c0.4-0.1,0.9-0.2,1.3-0.2c0.5-0.1,1-0.1,1.5-0.1
			c0.9,0,1.7,0.1,2.6,0.2c0.5,0.1,1,0.3,1.6,0.5c0.4-2,1.5-3.7,3.1-5c-0.4-0.1-2.2-0.8-2.7-0.9s-1-0.2-1.5-0.3s-1-0.1-1.5-0.2
			s-0.9-0.1-1.3-0.1C89,16.6,87.1,16.8,85.3,17.2 M103.8,28.2c-0.1-1.6,0.4-3.1,1.3-4.4c1-1.2,2.5-1.9,4-1.8c0.6,0,1.1,0,1.6,0.1
			s0.8,0.1,1.2,0.2v10.6c-0.5,0.3-1,0.5-1.5,0.6c-0.6,0.2-1.3,0.3-1.9,0.3C105.4,33.7,103.9,31.9,103.8,28.2 M104,17.4
			c-1.4,0.5-2.7,1.3-3.8,2.4c-1,1-1.8,2.3-2.3,3.6c-0.6,1.5-0.8,3.1-0.8,4.7c0,3.5,0.9,6.2,2.6,8.1s4.2,2.9,7.5,2.9
			c0.8,0,1.7-0.1,2.5-0.2c0.8-0.2,1.5-0.4,2.2-0.7V39c0,1.2-0.4,2.4-1.2,3.2c-0.8,0.8-2.1,1.2-4.1,1.2c-1.3,0-2.6-0.1-3.9-0.4
			c-1.1-0.2-2.2-0.6-3.3-1l-1.2,5.6c1.3,0.4,2.6,0.8,4,1c1.4,0.3,2.9,0.4,4.3,0.4c4.1,0,7.1-0.9,9.1-2.8s2.9-4.7,2.9-8.6V17.9
			c-0.6-0.2-1.3-0.4-2-0.5c-0.8-0.2-1.6-0.3-2.4-0.4s-1.7-0.2-2.5-0.3s-1.7-0.1-2.5-0.1C107.4,16.5,105.6,16.8,104,17.4 M63.4,24.8
			c0.2-0.5,0.5-1,0.8-1.5c0.4-0.4,0.8-0.8,1.3-1c0.6-0.3,1.3-0.4,1.9-0.4c0.7,0,1.4,0.1,2,0.4c1,0.5,1.7,1.4,2,2.5
			c0.2,0.5,0.3,1.1,0.3,1.6h-8.9C63,25.9,63.2,25.4,63.4,24.8 M63.2,17.3c-1.4,0.5-2.6,1.3-3.6,2.4c-1.1,1.1-2,2.5-2.5,3.9
			c-0.7,1.7-1,3.6-1,5.5c0,1.6,0.2,3.3,0.7,4.8c0.5,1.4,1.2,2.8,2.3,3.9c1.1,1.1,2.4,2,3.9,2.6c1.8,0.7,3.7,1,5.5,0.9
			c0.8,0,1.7,0,2.5-0.1c0.8-0.1,1.6-0.2,2.4-0.3c0.7-0.1,1.3-0.3,2-0.5c0.5-0.1,1-0.3,1.4-0.5l-0.9-5.4C75,34.8,74,35.1,73,35.2
			c-1.2,0.2-2.4,0.3-3.6,0.3c-1.6,0.1-3.2-0.3-4.6-1.2c-1.1-0.8-1.8-2-1.9-3.3h15.2c0-0.3,0-0.8,0.1-1.2c0-0.5,0-0.9,0-1.3
			c0-4-1-7-2.9-9c-2.1-2.1-5-3.2-7.9-3.1C65.9,16.5,64.5,16.8,63.2,17.3 M19,7.4c-0.8,0.7-1.2,1.8-1.2,2.9c-0.1,1.1,0.4,2.2,1.2,2.9
			c1.6,1.4,4,1.4,5.6,0c0.8-0.7,1.2-1.8,1.2-2.9c0.1-1.1-0.4-2.2-1.2-2.9C23,6,20.6,6,19,7.4 M3.6,7v25.9c0,1.1,0.1,2.3,0.4,3.4
			c0.2,1,0.7,1.9,1.4,2.6c0.8,0.8,1.8,1.3,2.9,1.6c1.5,0.4,3.1,0.6,4.7,0.6l0.9-5.5c-0.7,0-1.3-0.2-1.9-0.4c-0.9-0.3-1.5-1.1-1.6-2
			c-0.1-0.5-0.1-1.1-0.1-1.6V5.9L3.6,7z M40.1,35.5c-0.5,0-0.9-0.1-1.3-0.2V23.2c0.5-0.3,1.1-0.5,1.7-0.7c0.7-0.2,1.3-0.3,2-0.3
			c3.2,0,4.8,2.1,4.8,6.4c0.1,1.8-0.4,3.5-1.4,5c-1,1.3-2.5,2-4.1,1.9C41.1,35.6,40.6,35.6,40.1,35.5 M32.1,7v32.9
			c0.6,0.2,1.3,0.3,2.1,0.5s1.6,0.3,2.4,0.4s1.7,0.2,2.6,0.3s1.7,0.1,2.5,0.1c1.8,0,3.5-0.3,5.2-0.9c1.4-0.5,2.8-1.4,3.8-2.5
			c1.1-1.1,1.9-2.4,2.4-3.9c0.6-1.6,0.9-3.4,0.8-5.1c0-1.7-0.2-3.4-0.7-5c-0.4-1.4-1.1-2.7-2-3.9c-0.9-1.1-2-1.9-3.2-2.5
			c-1.4-0.6-2.9-0.9-4.4-0.9c-0.9,0-1.7,0.1-2.6,0.3c-0.8,0.2-1.6,0.4-2.3,0.8V5.9L32.1,7z"/>
	</defs>
	<clipPath id="SVGID_2_">
		<use xlink:href="#SVGID_1_"  style="overflow:visible;"/>
	</clipPath>
	<g class="st0">
		
			<linearGradient id="SVGID_3_" gradientUnits="userSpaceOnUse" x1="-595.8562" y1="-125.4424" x2="-595.1462" y2="-125.4424" gradientTransform="matrix(-208.61 0 0 -208.61 -124149.1875 -26141.0508)">
			<stop  offset="0" style="stop-color:#13192e"/>
			<stop  offset="1" style="stop-color:#13192e"/>
		</linearGradient>
		<rect x="3.6" y="5.9" class="st1" width="149.8" height="43.2"/>
	</g>
</g>
</svg>
